<svg xmlns="http://www.w3.org/2000/svg" version="1.0" width="1600.000000" height="668.000000" preserveAspectRatio="xMidYMid meet" style=""><rect id="backgroundrect" width="100%" height="100%" x="0" y="0" fill="none" stroke="none"/>
<metadata>
Created by potrace 1.15, written by Peter Selinger 2001-2017
</metadata>

<g class="currentLayer" style=""><title>Layer 1</title><g transform="translate(0,668) scale(0.10000000149011612,-0.10000000149011612) " fill="#ff0000" stroke="none" id="svg_1" class="selected" fill-opacity="1">
<path d="M88 5263 l-88 -4 0 -974 0 -975 123 0 c67 0 127 4 133 8 23 15 33 106 39 332 12 475 14 526 24 552 11 30 5 62 -10 52 -5 -3 -9 -1 -9 5 0 5 5 13 10 16 5 3 10 19 10 36 0 16 4 29 8 29 12 0 42 -34 42 -48 0 -6 14 -26 31 -44 30 -32 140 -170 169 -212 8 -11 27 -36 42 -54 15 -18 28 -39 28 -46 0 -8 11 -21 25 -30 14 -9 25 -23 25 -30 0 -8 17 -29 38 -47 60 -53 182 -209 182 -233 0 -12 10 -32 23 -43 12 -11 34 -33 49 -49 14 -16 36 -38 48 -49 12 -11 43 -52 69 -91 26 -40 62 -84 80 -100 l33 -27 54 27 c29 15 56 31 59 36 3 5 39 27 80 50 97 54 102 69 43 142 -23 30 -63 80 -88 113 -25 32 -56 70 -68 83 -13 14 -47 53 -75 87 -29 34 -79 94 -112 133 -115 137 -165 201 -165 210 0 5 19 14 43 21 23 7 59 23 79 37 21 13 40 24 42 24 15 0 89 60 147 119 102 104 124 171 123 371 0 127 -2 140 -29 205 -20 48 -47 88 -83 125 -30 30 -61 64 -71 75 -9 12 -55 42 -102 67 -128 69 -220 84 -514 87 -175 1 -235 3 -370 14 -16 2 -69 1 -117 0z m603 -314 c156 -21 274 -108 298 -220 13 -60 -3 -167 -25 -176 -8 -3 -14 -13 -14 -23 0 -17 -41 -54 -89 -80 -59 -31 -146 -42 -321 -42 -147 1 -177 -2 -192 -15 -10 -9 -21 -13 -25 -9 -8 8 -6 485 3 539 l6 37 137 0 c76 0 176 -5 222 -11z" id="svg_2" fill="#ff0000"/>
<path d="M8024 5228 c-62 -11 -117 -28 -166 -52 -107 -54 -109 -55 -170 -123 -43 -49 -61 -80 -84 -145 -27 -78 -29 -92 -28 -228 2 -137 3 -149 31 -212 31 -70 49 -99 98 -151 53 -57 76 -66 177 -71 51 -2 131 -11 178 -19 103 -19 353 -47 470 -51 47 -2 146 -11 220 -20 74 -9 180 -21 235 -26 254 -27 693 -80 708 -86 21 -8 12 -24 -14 -24 -10 0 -19 -4 -19 -9 0 -5 -53 -12 -117 -15 -160 -9 -345 -23 -548 -41 -93 -8 -207 -14 -252 -13 -98 3 -120 -9 -108 -61 4 -17 12 -37 18 -44 40 -41 50 -175 21 -262 -20 -57 -85 -124 -159 -163 -46 -25 -59 -27 -170 -27 -111 0 -124 2 -177 28 -84 41 -159 114 -196 190 -18 36 -32 73 -32 84 0 11 -8 27 -19 37 -16 14 -40 16 -177 14 l-159 -3 1 -70 c1 -52 9 -85 28 -129 14 -32 26 -64 26 -71 0 -7 16 -36 35 -65 19 -29 35 -55 35 -59 1 -10 133 -145 162 -163 15 -10 38 -18 52 -18 14 0 27 -4 30 -9 11 -17 191 -83 264 -97 184 -35 403 0 557 90 60 36 181 169 218 240 17 34 40 99 52 145 13 46 29 87 36 91 23 13 778 60 959 60 63 0 128 2 145 5 29 5 510 43 650 51 66 4 202 13 725 49 425 30 508 35 680 45 299 18 750 49 860 60 109 10 356 25 570 35 69 4 188 10 265 16 77 5 208 14 290 19 238 15 568 48 679 68 96 17 18 39 -244 66 -151 16 -310 26 -750 46 -118 5 -287 14 -375 20 -88 6 -254 15 -370 20 -265 12 -582 28 -660 34 -33 3 -175 10 -315 16 -140 6 -285 15 -322 20 -37 6 -109 10 -160 10 -51 0 -142 4 -203 9 -60 6 -193 13 -295 16 -102 3 -214 10 -250 15 -36 5 -153 11 -260 14 -107 4 -224 11 -260 16 -36 5 -116 10 -179 10 -62 0 -141 4 -175 10 -33 5 -149 14 -256 20 -107 6 -256 15 -330 20 -74 5 -181 10 -237 11 -57 1 -122 5 -145 9 -24 5 -162 13 -308 20 -240 10 -494 28 -671 48 -78 9 -125 41 -158 109 -24 48 -28 126 -9 170 16 38 96 112 128 119 14 3 42 10 62 16 42 12 127 5 189 -16 64 -22 115 -64 151 -123 63 -104 60 -103 237 -103 191 0 196 2 172 88 -9 31 -28 79 -43 106 -16 27 -28 53 -28 58 0 17 -89 126 -139 170 -28 24 -72 54 -98 68 -26 14 -55 30 -63 36 -17 14 -112 41 -185 54 -93 16 -234 16 -331 -2z" id="svg_3" fill="#ff0000"/>
<path d="M3623 5218 c-12 -13 -33 -49 -47 -80 -14 -31 -30 -60 -36 -63 -5 -3 -15 -24 -22 -46 -6 -23 -18 -43 -25 -46 -7 -3 -13 -10 -13 -16 0 -11 -121 -266 -141 -297 -5 -8 -14 -26 -21 -40 -45 -99 -59 -127 -68 -140 -5 -8 -23 -45 -39 -82 -17 -36 -35 -69 -40 -73 -6 -3 -11 -19 -11 -34 0 -15 -16 -53 -35 -85 -19 -32 -35 -67 -35 -77 0 -11 -4 -19 -10 -19 -5 0 -16 -16 -25 -36 -8 -19 -23 -48 -34 -63 -11 -15 -23 -40 -27 -57 -4 -16 -24 -63 -45 -104 -40 -81 -110 -228 -154 -325 -41 -91 -86 -178 -101 -196 -17 -20 -18 -53 -1 -67 27 -22 330 -32 368 -12 15 9 79 124 79 144 0 4 9 19 20 33 11 14 20 35 20 47 0 11 14 39 30 60 17 22 30 45 30 52 0 23 58 142 74 151 9 5 20 22 25 39 l7 29 345 2 c260 2 348 0 359 -10 8 -6 32 -47 52 -89 21 -42 42 -80 48 -83 5 -3 10 -17 10 -31 0 -13 9 -32 20 -42 12 -9 34 -45 50 -79 16 -34 34 -64 39 -67 5 -4 12 -19 16 -35 3 -16 12 -32 20 -34 7 -3 16 -20 20 -37 12 -57 40 -65 215 -65 172 0 206 9 194 48 -4 12 -17 33 -30 46 -13 13 -24 32 -24 42 0 9 -3 19 -7 21 -5 2 -19 26 -32 53 -14 28 -33 62 -43 77 -10 14 -18 38 -18 51 0 14 -4 28 -9 32 -5 3 -17 28 -26 56 -9 27 -28 62 -41 76 -13 14 -24 31 -24 38 0 7 -7 18 -15 25 -8 7 -15 23 -15 36 0 13 -4 24 -8 24 -5 0 -17 19 -28 43 -10 23 -24 48 -31 55 -7 7 -13 22 -13 32 0 10 -8 25 -18 32 -10 7 -32 43 -50 80 -18 37 -37 70 -41 73 -14 8 -51 84 -51 104 0 11 -16 38 -35 61 -19 23 -35 51 -35 61 0 11 -7 22 -15 25 -8 3 -19 22 -26 42 -6 21 -17 44 -24 52 -7 8 -26 42 -41 75 -15 33 -37 74 -49 90 -13 17 -40 62 -61 100 -80 150 -95 176 -121 218 -15 23 -49 80 -76 127 -63 109 -70 114 -104 78z m109 -743 c6 -16 14 -32 17 -35 10 -9 111 -217 126 -259 8 -22 10 -43 6 -46 -18 -10 -172 -15 -281 -8 l-115 8 2 28 c1 15 9 42 17 59 9 17 16 35 16 39 0 16 121 264 138 282 16 18 17 18 39 -10 12 -15 28 -41 35 -58z" id="svg_4" fill="#ff0000"/>
<path d="M4739 5189 c-12 -23 -8 -353 5 -366 3 -3 6 -59 6 -123 0 -64 5 -208 10 -320 6 -113 15 -394 20 -625 5 -231 12 -430 16 -442 7 -26 62 -33 229 -30 l110 2 3 80 c2 44 -1 193 -7 330 -6 138 -13 365 -16 505 -3 140 -8 269 -11 286 -9 50 13 52 55 5 63 -73 572 -581 581 -581 5 0 12 -9 15 -20 3 -11 16 -25 28 -31 32 -17 137 -121 137 -136 0 -7 11 -15 25 -19 14 -3 32 -19 40 -33 7 -15 32 -44 54 -64 23 -20 41 -41 41 -45 0 -5 11 -14 24 -20 13 -6 27 -20 31 -31 3 -11 14 -23 24 -26 10 -3 24 -17 31 -30 7 -14 18 -25 23 -25 10 0 35 -22 79 -69 86 -93 234 -211 264 -211 12 0 24 6 26 13 5 16 -16 511 -26 622 -3 22 -7 87 -10 145 -4 58 -13 211 -21 340 -8 129 -22 367 -30 528 -8 162 -20 302 -25 313 -6 10 -19 23 -30 29 -29 16 -282 13 -305 -4 -17 -12 -18 -26 -11 -242 4 -125 11 -233 16 -239 5 -6 14 -146 20 -311 12 -333 15 -391 25 -416 4 -10 4 -25 1 -34 -5 -12 -13 -9 -48 18 -115 92 -238 215 -238 240 0 10 -5 18 -11 18 -14 0 -33 18 -251 233 -99 97 -182 177 -184 177 -2 0 -70 66 -151 146 -82 81 -163 158 -180 171 -18 14 -33 31 -33 38 0 6 -11 17 -24 23 -14 6 -32 23 -42 37 -9 14 -22 25 -29 25 -7 0 -32 21 -56 47 -24 27 -64 63 -89 82 -25 19 -51 41 -58 48 -20 19 -40 16 -53 -8z" id="svg_5" fill="#ff0000"/>
<path d="M1413 5183 c-18 -2 -33 -8 -33 -14 0 -5 4 -9 9 -9 4 0 6 -11 4 -24 -4 -17 1 -28 16 -38 12 -7 21 -18 21 -25 0 -7 5 -13 10 -13 6 0 10 -6 10 -13 0 -8 11 -24 25 -37 14 -13 25 -27 25 -31 0 -11 57 -94 75 -109 8 -7 15 -21 15 -31 0 -9 16 -34 35 -55 20 -20 38 -48 41 -61 4 -12 9 -23 13 -23 3 0 17 -20 31 -44 13 -25 27 -43 30 -41 4 2 13 -8 21 -23 8 -15 19 -30 26 -35 6 -4 14 -20 18 -36 3 -16 13 -32 21 -35 8 -3 14 -12 14 -20 0 -8 5 -16 11 -18 5 -2 11 -12 13 -22 1 -10 16 -32 33 -50 17 -17 37 -45 46 -62 9 -17 23 -36 31 -43 9 -8 16 -21 16 -30 0 -9 9 -22 20 -29 11 -7 20 -18 20 -25 0 -8 11 -24 25 -37 14 -13 25 -29 25 -35 0 -7 6 -25 14 -41 17 -35 25 -188 26 -529 0 -137 4 -256 9 -263 6 -10 53 -15 173 -19 156 -6 166 -5 176 13 12 25 22 264 22 576 0 193 3 249 13 260 8 7 25 31 39 53 14 22 33 46 42 54 9 7 16 20 16 27 0 8 9 23 19 33 11 11 27 33 36 48 21 37 61 94 79 113 7 8 22 31 33 50 10 19 45 75 78 123 33 49 66 101 74 115 8 14 22 35 33 46 10 11 18 25 18 31 0 6 14 27 30 45 17 18 30 39 30 46 0 7 6 17 13 21 7 4 28 35 46 68 19 33 42 71 52 84 11 13 19 36 19 51 0 40 -32 48 -198 49 l-142 2 -45 -45 c-27 -28 -45 -55 -45 -69 0 -12 -13 -38 -30 -57 -16 -19 -29 -40 -30 -46 0 -6 -10 -23 -22 -37 -13 -14 -58 -79 -101 -144 -170 -256 -226 -333 -246 -333 -8 0 -65 68 -101 120 -13 19 -27 37 -30 40 -3 3 -22 31 -44 63 -21 31 -42 57 -47 57 -5 0 -9 6 -9 13 0 6 -14 30 -30 51 -17 22 -30 44 -30 49 0 6 -11 25 -25 42 -13 18 -21 35 -18 39 4 3 1 6 -5 6 -7 0 -12 9 -12 19 0 28 -11 52 -21 45 -5 -3 -24 19 -43 48 -48 75 -94 131 -119 145 -21 12 -283 16 -364 6z" id="svg_6" fill="#ff0000"/>
<path d="M6991 5070 c-34 -5 -36 -8 -62 -85 -15 -44 -39 -125 -54 -180 -15 -55 -34 -122 -42 -150 -8 -27 -28 -108 -45 -179 -38 -156 -42 -150 117 -147 187 3 195 7 225 118 45 164 52 191 65 238 7 28 18 70 24 95 7 25 16 63 21 85 4 22 16 69 25 103 13 50 15 69 6 88 -11 25 -13 25 -128 22 -65 -1 -134 -5 -152 -8z" id="svg_7" fill="#ff0000"/>
<path d="M5003 2728 c-6 -7 -27 -49 -48 -93 -22 -44 -42 -82 -45 -85 -10 -9 -30 -60 -30 -76 0 -9 -24 -68 -54 -133 -30 -64 -58 -128 -61 -143 -4 -15 -13 -32 -21 -39 -8 -6 -14 -18 -14 -25 0 -8 -4 -14 -8 -14 -9 0 -20 -20 -47 -90 -10 -25 -28 -67 -40 -95 -13 -27 -26 -61 -30 -75 -4 -14 -12 -30 -17 -37 -5 -6 -18 -35 -28 -63 -18 -50 -18 -52 1 -71 16 -16 33 -19 103 -19 57 0 87 4 93 13 15 24 75 162 83 192 12 47 37 100 53 114 10 8 62 11 177 9 170 -3 166 -2 184 -48 4 -8 27 -51 52 -95 24 -44 51 -94 59 -111 23 -51 38 -57 128 -55 45 1 86 6 91 11 9 9 -10 60 -40 110 -9 14 -21 37 -27 53 -6 15 -14 27 -18 27 -4 0 -10 16 -13 35 -4 19 -13 38 -20 42 -7 5 -45 69 -84 143 -39 74 -84 160 -101 190 -54 97 -91 163 -124 225 -18 33 -40 74 -49 90 -9 17 -19 37 -23 45 -18 46 -47 79 -66 80 -4 0 -11 -6 -16 -12z m96 -455 c11 -23 21 -57 23 -75 l3 -33 -78 -3 c-57 -2 -79 1 -82 10 -6 15 36 127 61 166 l17 25 18 -24 c11 -13 28 -43 38 -66z" id="svg_8" fill="#ff0000"/>
<path d="M11683 2473 c4 -137 11 -284 17 -328 5 -44 14 -154 19 -244 7 -129 13 -167 25 -180 21 -21 158 -23 178 -3 10 10 12 44 10 130 -1 64 -6 119 -11 122 -11 7 -31 323 -21 334 5 5 21 -1 37 -13 53 -42 253 -235 253 -245 0 -5 63 -70 140 -145 224 -218 240 -232 264 -229 20 3 21 8 20 88 -1 47 -9 150 -18 230 -21 181 -34 378 -37 535 -1 66 -4 125 -8 130 -3 6 -6 15 -6 20 0 11 -127 19 -164 10 l-24 -6 9 -232 c12 -340 12 -341 -9 -345 -9 -2 -20 4 -24 14 -8 22 -40 54 -54 54 -5 0 -7 4 -4 10 3 5 -5 15 -18 21 -13 6 -31 24 -41 40 -9 16 -22 29 -27 29 -11 0 -39 25 -39 34 0 10 -39 46 -50 46 -16 0 -90 71 -90 86 0 7 -18 28 -41 46 -23 18 -47 45 -55 61 -8 15 -21 27 -29 27 -7 0 -22 11 -33 25 -11 14 -24 25 -29 25 -5 0 -31 23 -58 50 -27 28 -58 50 -69 50 -18 0 -19 -7 -13 -247z" id="svg_9" fill="#ff0000"/>
<path d="M3034 2698 c-3 -4 -13 -8 -23 -8 -43 0 -48 -33 -38 -250 4 -74 9 -238 13 -365 3 -126 7 -263 8 -303 2 -40 7 -77 13 -83 7 -7 92 -11 253 -10 l241 2 64 31 c38 18 75 44 90 64 15 19 36 43 47 54 18 16 21 35 26 124 3 70 1 106 -6 106 -6 0 -13 14 -17 30 -4 17 -15 35 -26 40 -10 6 -19 17 -19 25 0 8 -9 19 -19 25 -25 13 -22 28 18 79 33 41 34 47 35 130 0 67 -4 94 -17 114 -9 15 -17 31 -17 37 0 20 -96 112 -136 130 -44 21 -129 28 -357 33 -70 2 -130 0 -133 -5z m391 -210 c27 -25 37 -44 41 -78 5 -40 3 -48 -21 -73 -32 -32 -72 -43 -176 -50 l-77 -5 -7 110 c-6 88 -5 112 6 119 8 5 56 9 107 9 90 0 93 -1 127 -32z m-92 -378 c81 0 123 -16 160 -60 41 -51 37 -96 -13 -145 l-41 -40 -111 -3 c-60 -2 -114 0 -119 5 -5 5 -12 68 -15 140 l-7 132 39 -14 c21 -8 70 -14 107 -15z" id="svg_10" fill="#ff0000"/>
<path d="M6389 2697 c-24 -18 -33 -107 -13 -135 14 -20 24 -22 98 -22 98 0 142 -13 149 -43 3 -12 9 -85 13 -162 4 -77 10 -142 14 -145 4 -3 12 -102 18 -221 5 -125 14 -225 21 -237 11 -20 20 -22 97 -22 83 0 85 1 95 28 7 16 9 58 5 102 -3 41 -12 161 -21 265 -31 395 -31 401 -5 415 13 7 62 15 109 18 47 2 92 9 99 15 17 13 15 99 -2 123 -12 16 -32 20 -118 25 -189 12 -541 10 -559 -4z" id="svg_11" fill="#ff0000"/>
<path d="M7220 2702 c-90 -5 -110 -11 -110 -36 0 -12 17 -46 38 -74 58 -80 100 -142 137 -202 18 -30 43 -67 54 -82 12 -14 21 -31 21 -37 0 -6 4 -11 9 -11 5 0 14 -14 21 -30 7 -17 18 -34 25 -38 7 -4 24 -30 39 -59 24 -49 26 -61 27 -200 0 -92 5 -161 13 -183 l13 -35 83 2 c56 1 86 6 92 15 5 7 6 89 3 194 l-7 182 37 68 c20 38 43 76 51 85 8 8 14 20 14 26 0 5 9 18 20 28 11 10 20 23 20 28 0 6 10 24 23 41 12 17 28 43 35 59 6 15 16 27 22 27 5 0 10 9 10 19 0 11 4 22 9 26 6 3 16 18 24 33 8 15 22 41 31 57 21 39 20 72 -1 79 -19 5 -101 9 -145 7 -28 -1 -36 -11 -121 -141 -23 -36 -47 -71 -54 -78 -6 -6 -15 -21 -18 -32 -3 -11 -10 -20 -14 -20 -3 0 -15 -13 -24 -30 -24 -40 -39 -38 -66 10 -12 22 -26 40 -29 40 -4 0 -16 14 -26 31 -10 18 -26 39 -35 49 -9 9 -23 28 -31 42 -38 64 -93 127 -118 135 -15 4 -47 7 -72 5z" id="svg_12" fill="#ff0000"/>
<path d="M8570 2698 c-133 -54 -179 -99 -205 -197 -20 -77 -12 -172 16 -197 11 -9 19 -25 19 -34 0 -19 60 -70 116 -99 22 -11 75 -27 119 -36 114 -23 146 -36 183 -74 35 -37 39 -56 18 -104 -23 -55 -61 -87 -101 -87 -59 0 -100 24 -144 84 l-42 56 -69 0 c-70 0 -100 -14 -100 -45 0 -15 45 -145 63 -183 6 -13 26 -27 51 -34 23 -7 57 -22 77 -34 108 -67 301 -49 378 35 14 16 36 34 49 40 12 7 22 20 22 30 0 10 11 30 24 44 38 41 44 135 14 208 -30 73 -92 140 -165 177 -58 29 -189 75 -250 87 -48 10 -83 47 -83 89 0 36 -1 35 77 77 30 16 85 -10 134 -62 40 -43 57 -46 144 -25 l50 12 -2 43 c-2 46 -29 90 -92 149 -80 74 -223 112 -301 80z" id="svg_13" fill="#ff0000"/>
<path d="M10916 2694 c-84 -20 -172 -70 -236 -134 -115 -114 -155 -243 -131 -423 7 -51 13 -104 15 -118 1 -14 12 -36 24 -49 12 -13 22 -32 22 -42 0 -10 4 -18 9 -18 5 0 22 -20 38 -45 15 -24 33 -44 39 -45 6 0 23 -11 37 -24 15 -14 62 -40 104 -60 127 -57 276 -68 404 -31 59 17 159 62 159 72 0 5 18 21 40 37 22 17 52 48 67 70 16 23 34 47 40 54 7 7 15 25 19 40 3 15 12 55 20 89 26 115 15 227 -36 338 -40 90 -121 178 -197 217 -24 12 -43 24 -43 27 0 8 -44 26 -109 45 -67 20 -204 20 -285 0z m254 -204 c67 -25 95 -43 145 -94 41 -41 54 -63 68 -112 18 -68 11 -147 -19 -220 -17 -40 -109 -134 -132 -134 -7 0 -26 -10 -43 -22 -25 -19 -43 -23 -107 -23 -64 1 -87 5 -134 29 -31 15 -67 38 -80 50 -55 54 -88 95 -88 110 0 9 -7 33 -15 53 -23 54 -4 225 29 264 46 54 99 93 144 105 56 16 184 13 232 -6z" id="svg_14" fill="#ff0000"/>
<path d="M3824 2692 c-21 -14 -24 -61 -15 -228 5 -93 15 -307 22 -476 l13 -308 323 0 323 0 0 74 c0 41 -5 78 -10 81 -11 7 -117 13 -288 16 -130 2 -141 11 -144 108 -4 108 -1 133 13 142 8 5 96 9 195 9 206 0 194 -5 194 85 0 78 -3 79 -209 83 -117 3 -182 8 -193 16 -19 14 -37 138 -28 196 l5 35 200 5 200 5 3 68 c2 42 -2 74 -9 83 -9 11 -63 14 -298 14 -157 0 -291 -4 -297 -8z" id="svg_15" fill="#ff0000"/>
<path d="M6210 2694 c-73 -13 -70 -9 -70 -77 0 -34 7 -179 16 -321 15 -235 15 -263 1 -290 -9 -17 -18 -40 -21 -52 -5 -14 -22 -25 -64 -36 -46 -13 -51 -16 -27 -18 24 -1 20 -4 -25 -16 -40 -11 -61 -12 -78 -4 -13 5 -36 10 -52 10 -18 0 -33 7 -39 18 -5 10 -26 27 -45 37 -21 11 -36 27 -36 37 0 10 -6 18 -14 18 -30 0 -42 83 -61 410 -10 175 -16 254 -21 262 -3 5 -41 8 -85 8 -65 0 -81 -3 -86 -16 -8 -22 14 -496 28 -604 6 -47 22 -108 35 -137 13 -28 24 -54 24 -57 0 -3 12 -22 26 -43 30 -45 122 -109 179 -125 83 -23 179 -35 215 -27 19 5 51 9 72 9 20 0 60 12 90 27 52 27 148 93 134 93 -9 0 34 72 48 82 13 8 12 455 0 553 -4 33 -6 74 -5 90 2 37 -19 154 -29 160 -12 7 -84 13 -110 9z" id="svg_16" fill="#ff0000"/>
<path d="M9457 2673 c-4 -3 -7 -16 -7 -27 0 -12 -11 -39 -25 -61 -13 -22 -25 -47 -25 -56 0 -9 -9 -26 -20 -39 -11 -13 -20 -33 -20 -45 0 -11 -4 -25 -8 -30 -5 -6 -19 -37 -32 -70 -24 -61 -84 -202 -191 -444 -32 -73 -59 -139 -59 -146 0 -18 33 -25 116 -25 74 0 94 9 94 45 0 12 7 30 15 41 8 10 15 28 15 38 0 11 9 38 19 60 11 23 25 53 30 69 l11 27 155 0 c137 0 157 -2 173 -18 22 -24 62 -79 62 -87 0 -4 15 -30 33 -58 19 -29 44 -69 56 -89 l23 -38 87 0 c48 0 90 3 94 6 10 10 -15 63 -94 196 -40 68 -82 141 -94 163 -40 76 -82 150 -125 220 -51 83 -88 149 -147 265 -25 47 -52 91 -61 98 -17 13 -64 16 -75 5z m99 -388 c16 -36 32 -65 36 -65 5 0 8 -9 8 -20 0 -19 -5 -21 -72 -18 -66 3 -73 5 -76 24 -2 12 4 28 12 37 9 9 16 20 16 26 0 16 33 81 41 81 4 0 20 -29 35 -65z" id="svg_17" fill="#ff0000"/>
<path d="M10009 2639 c-12 -24 -3 -209 11 -209 4 0 11 -46 15 -102 3 -57 13 -152 20 -213 8 -60 17 -148 21 -195 3 -47 11 -121 18 -165 l11 -80 220 2 c121 1 235 5 253 8 29 5 32 9 32 41 0 51 -24 102 -52 109 -13 3 -81 6 -153 8 l-130 2 -13 145 c-6 80 -17 179 -22 220 -5 41 -12 102 -15 135 -5 55 -10 106 -20 195 -2 19 -8 53 -12 75 l-8 40 -82 3 c-75 3 -83 1 -94 -19z" id="svg_18" fill="#ff0000"/>
</g></g></svg>